Language.....: English -(GREETZ TO THE GREATZ:
[b][color=#FF0000] 
http://www.seedboxworld.com( for your cheap fast seedbox needs )


BadGirl2k9  	 	 	
UnDeaD 
algpz500 			
virusofsaten 	 		
WICCYWOLF	
FoxyB 			 		
Joker321[/color][/b]
 
http://www.imdb.com/title/tt1287468/

The ongoing war between the canine and feline species is put on hold when they join
 forces to thwart a rogue cat spy with her own sinister plans for conquest.

Cats And Dogs The Revenge Of Kitty Galore.V2 TS.X264.SDteam


Format                           : Matroska
File size                        : 345 MiB
Duration                         : 1h 16mn
Overall bit rate                 : 633 Kbps

Video
ID                               : 1
Format                           : AVC
Format/Info                      : Advanced Video Codec
Format profile                   : High@L2.1
Format settings, CABAC           : Yes
Format settings, ReFrames        : 4 frames
Muxing mode                      : Container profile=Unknown@2.1
Codec ID                         : V_MPEG4/ISO/AVC
Duration                         : 1h 16mn
Bit rate                         : 492 Kbps
Nominal bit rate                 : 500 Kbps
Width                            : 688 pixels
Height                           : 288 pixels
Display aspect ratio             : 2.35:1
Original display aspect ratio    : 2.35:1
Frame rate mode                  : Variable
Frame rate                       : 25.000 fps
Resolution                       : 8 bits
Colorimetry                      : 4:2:0
Scan type                        : Progressive
Bits/(Pixel*Frame)               : 0.099
Stream size                      : 269 MiB (78%)
Audio
ID                               : 2
Format                           : MPEG Audio
Format version                   : Version 1
Format profile                   : Layer 3
Codec ID                         : A_MPEG/L3
Codec ID/Hint                    : MP3
Duration                         : 1h 16mn
Bit rate mode                    : Constant
Bit rate                         : 128 Kbps
Channel(s)                       : 2 channels
Sampling rate                    : 44.1 KHz
Stream size                      : 69.8 MiB (20%)


